<svg width="165" height="67" viewBox="0 0 165 67" fill="none" xmlns="http://www.w3.org/2000/svg">
<rect width="165" height="67" rx="33.5" fill="black"/>
<path d="M42.5455 39.46C43.0989 39.46 43.5755 39.3967 43.9755 39.27C44.3755 39.1433 44.7022 38.9667 44.9555 38.74C45.2155 38.5067 45.4055 38.2333 45.5255 37.92C45.6455 37.6 45.7055 37.25 45.7055 36.87C45.7055 36.13 45.4422 35.5467 44.9155 35.12C44.3889 34.6867 43.5989 34.47 42.5455 34.47H39.4455V39.46H42.5455ZM39.4455 28.2V33.09H42.0055C42.5522 33.09 43.0255 33.03 43.4255 32.91C43.8322 32.79 44.1655 32.6233 44.4255 32.41C44.6922 32.1967 44.8889 31.94 45.0155 31.64C45.1422 31.3333 45.2055 31 45.2055 30.64C45.2055 29.7933 44.9522 29.1767 44.4455 28.79C43.9389 28.3967 43.1522 28.2 42.0855 28.2H39.4455ZM42.0855 26.67C42.9655 26.67 43.7222 26.7567 44.3555 26.93C44.9955 27.1033 45.5189 27.35 45.9255 27.67C46.3389 27.99 46.6422 28.3833 46.8355 28.85C47.0289 29.31 47.1255 29.83 47.1255 30.41C47.1255 30.7633 47.0689 31.1033 46.9555 31.43C46.8489 31.75 46.6855 32.05 46.4655 32.33C46.2455 32.61 45.9655 32.8633 45.6255 33.09C45.2922 33.31 44.8989 33.49 44.4455 33.63C45.4989 33.83 46.2889 34.2067 46.8155 34.76C47.3489 35.3067 47.6155 36.0267 47.6155 36.92C47.6155 37.5267 47.5022 38.08 47.2755 38.58C47.0555 39.08 46.7289 39.51 46.2955 39.87C45.8689 40.23 45.3422 40.51 44.7155 40.71C44.0889 40.9033 43.3755 41 42.5755 41H37.5155V26.67H42.0855ZM54.139 30.71C54.879 30.71 55.5457 30.8333 56.139 31.08C56.7323 31.3267 57.239 31.6767 57.659 32.13C58.079 32.5833 58.399 33.1333 58.619 33.78C58.8457 34.42 58.959 35.1367 58.959 35.93C58.959 36.73 58.8457 37.45 58.619 38.09C58.399 38.73 58.079 39.2767 57.659 39.73C57.239 40.1833 56.7323 40.5333 56.139 40.78C55.5457 41.02 54.879 41.14 54.139 41.14C53.3923 41.14 52.719 41.02 52.119 40.78C51.5257 40.5333 51.019 40.1833 50.599 39.73C50.179 39.2767 49.8557 38.73 49.629 38.09C49.409 37.45 49.299 36.73 49.299 35.93C49.299 35.1367 49.409 34.42 49.629 33.78C49.8557 33.1333 50.179 32.5833 50.599 32.13C51.019 31.6767 51.5257 31.3267 52.119 31.08C52.719 30.8333 53.3923 30.71 54.139 30.71ZM54.139 39.75C55.139 39.75 55.8857 39.4167 56.379 38.75C56.8723 38.0767 57.119 37.14 57.119 35.94C57.119 34.7333 56.8723 33.7933 56.379 33.12C55.8857 32.4467 55.139 32.11 54.139 32.11C53.6323 32.11 53.189 32.1967 52.809 32.37C52.4357 32.5433 52.1223 32.7933 51.869 33.12C51.6223 33.4467 51.4357 33.85 51.309 34.33C51.189 34.8033 51.129 35.34 51.129 35.94C51.129 37.14 51.3757 38.0767 51.869 38.75C52.369 39.4167 53.1257 39.75 54.139 39.75ZM63.0066 26.27V34.94H63.4666C63.6 34.94 63.71 34.9233 63.7966 34.89C63.89 34.85 63.9866 34.7733 64.0866 34.66L67.2866 31.23C67.38 31.1167 67.4766 31.03 67.5766 30.97C67.6833 30.9033 67.8233 30.87 67.9966 30.87H69.6066L65.8766 34.84C65.6966 35.0667 65.5033 35.2433 65.2966 35.37C65.4166 35.45 65.5233 35.5433 65.6166 35.65C65.7166 35.75 65.81 35.8667 65.8966 36L69.8566 41H68.2666C68.1133 41 67.98 40.9767 67.8666 40.93C67.76 40.8767 67.6666 40.7833 67.5866 40.65L64.2566 36.5C64.1566 36.36 64.0566 36.27 63.9566 36.23C63.8633 36.1833 63.7166 36.16 63.5166 36.16H63.0066V41H61.2166V26.27H63.0066ZM76.8629 36.44C76.0429 36.4667 75.3429 36.5333 74.7629 36.64C74.1896 36.74 73.7196 36.8733 73.3529 37.04C72.9929 37.2067 72.7296 37.4033 72.5629 37.63C72.4029 37.8567 72.3229 38.11 72.3229 38.39C72.3229 38.6567 72.3662 38.8867 72.4529 39.08C72.5396 39.2733 72.6562 39.4333 72.8029 39.56C72.9562 39.68 73.1329 39.77 73.3329 39.83C73.5396 39.8833 73.7596 39.91 73.9929 39.91C74.3062 39.91 74.5929 39.88 74.8529 39.82C75.1129 39.7533 75.3562 39.66 75.5829 39.54C75.8162 39.42 76.0362 39.2767 76.2429 39.11C76.4562 38.9433 76.6629 38.7533 76.8629 38.54V36.44ZM71.1129 32.3C71.6729 31.76 72.2762 31.3567 72.9229 31.09C73.5696 30.8233 74.2862 30.69 75.0729 30.69C75.6396 30.69 76.1429 30.7833 76.5829 30.97C77.0229 31.1567 77.3929 31.4167 77.6929 31.75C77.9929 32.0833 78.2196 32.4867 78.3729 32.96C78.5262 33.4333 78.6029 33.9533 78.6029 34.52V41H77.8129C77.6396 41 77.5062 40.9733 77.4129 40.92C77.3196 40.86 77.2462 40.7467 77.1929 40.58L76.9929 39.62C76.7262 39.8667 76.4662 40.0867 76.2129 40.28C75.9596 40.4667 75.6929 40.6267 75.4129 40.76C75.1329 40.8867 74.8329 40.9833 74.5129 41.05C74.1996 41.1233 73.8496 41.16 73.4629 41.16C73.0696 41.16 72.6996 41.1067 72.3529 41C72.0062 40.8867 71.7029 40.72 71.4429 40.5C71.1896 40.28 70.9862 40.0033 70.8329 39.67C70.6862 39.33 70.6129 38.93 70.6129 38.47C70.6129 38.07 70.7229 37.6867 70.9429 37.32C71.1629 36.9467 71.5196 36.6167 72.0129 36.33C72.5062 36.0433 73.1496 35.81 73.9429 35.63C74.7362 35.4433 75.7096 35.3367 76.8629 35.31V34.52C76.8629 33.7333 76.6929 33.14 76.3529 32.74C76.0129 32.3333 75.5162 32.13 74.8629 32.13C74.4229 32.13 74.0529 32.1867 73.7529 32.3C73.4596 32.4067 73.2029 32.53 72.9829 32.67C72.7696 32.8033 72.5829 32.9267 72.4229 33.04C72.2696 33.1467 72.1162 33.2 71.9629 33.2C71.8429 33.2 71.7396 33.17 71.6529 33.11C71.5662 33.0433 71.4929 32.9633 71.4329 32.87L71.1129 32.3ZM86.4315 41V30.87H87.5015C87.7548 30.87 87.9115 30.9933 87.9715 31.24L88.1015 32.28C88.4748 31.82 88.8948 31.4433 89.3615 31.15C89.8282 30.8567 90.3682 30.71 90.9815 30.71C91.6615 30.71 92.2115 30.9 92.6315 31.28C93.0582 31.66 93.3648 32.1733 93.5515 32.82C93.6982 32.4533 93.8848 32.1367 94.1115 31.87C94.3448 31.6033 94.6048 31.3833 94.8915 31.21C95.1782 31.0367 95.4815 30.91 95.8015 30.83C96.1282 30.75 96.4582 30.71 96.7915 30.71C97.3248 30.71 97.7982 30.7967 98.2115 30.97C98.6315 31.1367 98.9848 31.3833 99.2715 31.71C99.5648 32.0367 99.7882 32.44 99.9415 32.92C100.095 33.3933 100.171 33.9367 100.171 34.55V41H98.3815V34.55C98.3815 33.7567 98.2082 33.1567 97.8615 32.75C97.5148 32.3367 97.0148 32.13 96.3615 32.13C96.0682 32.13 95.7882 32.1833 95.5215 32.29C95.2615 32.39 95.0315 32.54 94.8315 32.74C94.6315 32.94 94.4715 33.1933 94.3515 33.5C94.2382 33.8 94.1815 34.15 94.1815 34.55V41H92.3915V34.55C92.3915 33.7367 92.2282 33.13 91.9015 32.73C91.5748 32.33 91.0982 32.13 90.4715 32.13C90.0315 32.13 89.6248 32.25 89.2515 32.49C88.8782 32.7233 88.5348 33.0433 88.2215 33.45V41H86.4315ZM107.147 30.71C107.887 30.71 108.553 30.8333 109.147 31.08C109.74 31.3267 110.247 31.6767 110.667 32.13C111.087 32.5833 111.407 33.1333 111.627 33.78C111.853 34.42 111.967 35.1367 111.967 35.93C111.967 36.73 111.853 37.45 111.627 38.09C111.407 38.73 111.087 39.2767 110.667 39.73C110.247 40.1833 109.74 40.5333 109.147 40.78C108.553 41.02 107.887 41.14 107.147 41.14C106.4 41.14 105.727 41.02 105.127 40.78C104.533 40.5333 104.027 40.1833 103.607 39.73C103.187 39.2767 102.863 38.73 102.637 38.09C102.417 37.45 102.307 36.73 102.307 35.93C102.307 35.1367 102.417 34.42 102.637 33.78C102.863 33.1333 103.187 32.5833 103.607 32.13C104.027 31.6767 104.533 31.3267 105.127 31.08C105.727 30.8333 106.4 30.71 107.147 30.71ZM107.147 39.75C108.147 39.75 108.893 39.4167 109.387 38.75C109.88 38.0767 110.127 37.14 110.127 35.94C110.127 34.7333 109.88 33.7933 109.387 33.12C108.893 32.4467 108.147 32.11 107.147 32.11C106.64 32.11 106.197 32.1967 105.817 32.37C105.443 32.5433 105.13 32.7933 104.877 33.12C104.63 33.4467 104.443 33.85 104.317 34.33C104.197 34.8033 104.137 35.34 104.137 35.94C104.137 37.14 104.383 38.0767 104.877 38.75C105.377 39.4167 106.133 39.75 107.147 39.75ZM106.377 28.11C106.377 28.2633 106.347 28.4067 106.287 28.54C106.227 28.6733 106.143 28.79 106.037 28.89C105.93 28.99 105.807 29.07 105.667 29.13C105.533 29.19 105.39 29.22 105.237 29.22C105.09 29.22 104.95 29.19 104.817 29.13C104.683 29.07 104.563 28.99 104.457 28.89C104.357 28.79 104.277 28.6733 104.217 28.54C104.157 28.4067 104.127 28.2633 104.127 28.11C104.127 27.9567 104.157 27.81 104.217 27.67C104.277 27.53 104.357 27.41 104.457 27.31C104.563 27.2033 104.683 27.12 104.817 27.06C104.95 27 105.09 26.97 105.237 26.97C105.39 26.97 105.533 27 105.667 27.06C105.807 27.12 105.93 27.2033 106.037 27.31C106.143 27.41 106.227 27.53 106.287 27.67C106.347 27.81 106.377 27.9567 106.377 28.11ZM110.187 28.11C110.187 28.2633 110.157 28.4067 110.097 28.54C110.037 28.6733 109.953 28.79 109.847 28.89C109.747 28.99 109.627 29.07 109.487 29.13C109.353 29.19 109.21 29.22 109.057 29.22C108.903 29.22 108.757 29.19 108.617 29.13C108.483 29.07 108.367 28.99 108.267 28.89C108.167 28.79 108.087 28.6733 108.027 28.54C107.967 28.4067 107.937 28.2633 107.937 28.11C107.937 27.9567 107.967 27.81 108.027 27.67C108.087 27.53 108.167 27.41 108.267 27.31C108.367 27.2033 108.483 27.12 108.617 27.06C108.757 27 108.903 26.97 109.057 26.97C109.21 26.97 109.353 27 109.487 27.06C109.627 27.12 109.747 27.2033 109.847 27.31C109.953 27.41 110.037 27.53 110.097 27.67C110.157 27.81 110.187 27.9567 110.187 28.11ZM117.159 41.16C116.359 41.16 115.742 40.9367 115.309 40.49C114.882 40.0433 114.669 39.4 114.669 38.56V32.36H113.449C113.342 32.36 113.252 32.33 113.179 32.27C113.105 32.2033 113.069 32.1033 113.069 31.97V31.26L114.729 31.05L115.139 27.92C115.159 27.82 115.202 27.74 115.269 27.68C115.342 27.6133 115.435 27.58 115.549 27.58H116.449V31.07H119.379V32.36H116.449V38.44C116.449 38.8667 116.552 39.1833 116.759 39.39C116.965 39.5967 117.232 39.7 117.559 39.7C117.745 39.7 117.905 39.6767 118.039 39.63C118.179 39.5767 118.299 39.52 118.399 39.46C118.499 39.4 118.582 39.3467 118.649 39.3C118.722 39.2467 118.785 39.22 118.839 39.22C118.932 39.22 119.015 39.2767 119.089 39.39L119.609 40.24C119.302 40.5267 118.932 40.7533 118.499 40.92C118.065 41.08 117.619 41.16 117.159 41.16ZM127.938 34.83C127.938 34.4167 127.878 34.04 127.758 33.7C127.645 33.3533 127.475 33.0567 127.248 32.81C127.028 32.5567 126.758 32.3633 126.438 32.23C126.118 32.09 125.755 32.02 125.348 32.02C124.495 32.02 123.818 32.27 123.318 32.77C122.825 33.2633 122.518 33.95 122.398 34.83H127.938ZM129.378 39.58C129.158 39.8467 128.895 40.08 128.588 40.28C128.281 40.4733 127.951 40.6333 127.598 40.76C127.251 40.8867 126.891 40.98 126.518 41.04C126.145 41.1067 125.775 41.14 125.408 41.14C124.708 41.14 124.061 41.0233 123.468 40.79C122.881 40.55 122.371 40.2033 121.938 39.75C121.511 39.29 121.178 38.7233 120.938 38.05C120.698 37.3767 120.578 36.6033 120.578 35.73C120.578 35.0233 120.685 34.3633 120.898 33.75C121.118 33.1367 121.431 32.6067 121.838 32.16C122.245 31.7067 122.741 31.3533 123.328 31.1C123.915 30.84 124.575 30.71 125.308 30.71C125.915 30.71 126.475 30.8133 126.988 31.02C127.508 31.22 127.955 31.5133 128.328 31.9C128.708 32.28 129.005 32.7533 129.218 33.32C129.431 33.88 129.538 34.52 129.538 35.24C129.538 35.52 129.508 35.7067 129.448 35.8C129.388 35.8933 129.275 35.94 129.108 35.94H122.338C122.358 36.58 122.445 37.1367 122.598 37.61C122.758 38.0833 122.978 38.48 123.258 38.8C123.538 39.1133 123.871 39.35 124.258 39.51C124.645 39.6633 125.078 39.74 125.558 39.74C126.005 39.74 126.388 39.69 126.708 39.59C127.035 39.4833 127.315 39.37 127.548 39.25C127.781 39.13 127.975 39.02 128.128 38.92C128.288 38.8133 128.425 38.76 128.538 38.76C128.685 38.76 128.798 38.8167 128.878 38.93L129.378 39.58Z" fill="white"/>
</svg>
