<svg width="1272" height="599" viewBox="0 0 1272 599" fill="none" xmlns="http://www.w3.org/2000/svg">
<path d="M48.2 148C45.6667 148 43.4 147.267 41.4 145.8C39.5333 144.333 38.1333 142.6 37.2 140.6L2.40001 57.4C1.73335 55.8 1.40001 54.4 1.40001 53.2C1.40001 50.6667 2.26668 48.5333 4.00001 46.8C5.73335 44.9333 7.86668 44 10.4 44C12.2667 44 13.9333 44.5333 15.4 45.6C17 46.5333 18.0667 47.7333 18.6 49.2L49.2 126.8L79.8 49.2C80.4667 47.7333 81.5333 46.5333 83 45.6C84.6 44.5333 86.2667 44 88 44C90.5333 44 92.6667 44.9333 94.4 46.8C96.1333 48.5333 97 50.6667 97 53.2C97 54.4 96.6667 55.8 96 57.4L61.2 140.6C60.2667 142.6 58.8 144.333 56.8 145.8C54.9333 147.267 52.7333 148 50.2 148H48.2ZM142.883 149C137.149 149 131.749 147.8 126.683 145.4C121.749 143 117.749 139.6 114.683 135.2C111.749 130.667 110.283 125.267 110.283 119C110.283 109.533 114.016 101.8 121.483 95.8C129.083 89.6667 140.683 86.6 156.283 86.6H180.483V85C180.483 76.0667 178.283 69.7333 173.883 66C169.483 62.1333 162.749 60.2 153.683 60.2C148.083 60.2 143.149 60.7333 138.883 61.8C134.749 62.7333 130.816 63.8 127.083 65C126.016 65.2667 125.149 65.4 124.483 65.4C122.483 65.4 120.749 64.6667 119.283 63.2C117.816 61.7333 117.083 59.9333 117.083 57.8C117.083 54.2 118.816 51.6667 122.283 50.2C126.949 48.2 132.083 46.5333 137.683 45.2C143.416 43.7333 149.816 43 156.883 43C166.616 43 174.549 44.9333 180.683 48.8C186.816 52.6667 191.349 57.6 194.283 63.6C197.216 69.6 198.683 75.8667 198.683 82.4V139C198.683 141.533 197.749 143.667 195.883 145.4C194.149 147.133 192.016 148 189.483 148C186.949 148 184.816 147.133 183.083 145.4C181.349 143.667 180.483 141.533 180.483 139V133.8C176.883 137.533 172.083 141 166.083 144.2C160.083 147.4 152.349 149 142.883 149ZM149.683 133C155.949 133 161.816 131.467 167.283 128.4C172.749 125.333 177.149 121.867 180.483 118V101.2H158.683C149.349 101.2 141.949 102.4 136.483 104.8C131.149 107.2 128.483 111.267 128.483 117C128.483 121.267 129.949 125 132.883 128.2C135.949 131.4 141.549 133 149.683 133ZM238.188 148C235.654 148 233.521 147.133 231.788 145.4C230.054 143.667 229.188 141.533 229.188 139V53.2C229.188 50.6667 230.054 48.5333 231.788 46.8C233.521 44.9333 235.654 44 238.188 44C240.721 44 242.854 44.9333 244.588 46.8C246.454 48.5333 247.388 50.6667 247.388 53.2V61.8C250.988 57 255.388 52.6667 260.588 48.8C265.788 44.9333 271.854 43 278.788 43H279.788C282.321 43 284.388 43.8667 285.988 45.6C287.721 47.3333 288.588 49.4667 288.588 52C288.588 54.5333 287.721 56.6 285.988 58.2C284.254 59.8 282.054 60.6 279.388 60.6H278.388C271.854 60.6 265.921 62.2667 260.588 65.6C255.254 68.8 250.854 73 247.388 78.2V139C247.388 141.533 246.454 143.667 244.588 145.4C242.854 147.133 240.721 148 238.188 148ZM341.95 148C339.417 148 337.15 147.267 335.15 145.8C333.283 144.333 331.883 142.6 330.95 140.6L296.15 57.4C295.483 55.8 295.15 54.4 295.15 53.2C295.15 50.6667 296.017 48.5333 297.75 46.8C299.483 44.9333 301.617 44 304.15 44C306.017 44 307.683 44.5333 309.15 45.6C310.75 46.5333 311.817 47.7333 312.35 49.2L342.95 126.8L373.55 49.2C374.217 47.7333 375.283 46.5333 376.75 45.6C378.35 44.5333 380.017 44 381.75 44C384.283 44 386.417 44.9333 388.15 46.8C389.883 48.5333 390.75 50.6667 390.75 53.2C390.75 54.4 390.417 55.8 389.75 57.4L354.95 140.6C354.017 142.6 352.55 144.333 350.55 145.8C348.683 147.267 346.483 148 343.95 148H341.95ZM456.038 149C439.771 149 427.038 144.4 417.838 135.2C408.771 125.867 404.238 112.8 404.238 96C404.238 86.9333 405.904 78.4 409.238 70.4C412.571 62.2667 417.771 55.6667 424.838 50.6C431.904 45.5333 440.971 43 452.038 43C462.304 43 470.971 45.4 478.038 50.2C485.104 54.8667 490.438 61 494.038 68.6C497.771 76.2 499.638 84.4667 499.638 93.4C499.638 95.9333 498.771 98.0667 497.038 99.8C495.438 101.533 493.238 102.4 490.438 102.4H422.638C423.704 111.333 427.104 118.533 432.838 124C438.571 129.333 446.838 132 457.638 132C463.638 132 468.704 131.467 472.838 130.4C476.971 129.2 480.904 127.667 484.638 125.8C485.704 125.267 486.904 125 488.238 125C490.371 125 492.238 125.733 493.838 127.2C495.438 128.667 496.238 130.533 496.238 132.8C496.238 134.4 495.704 135.867 494.638 137.2C493.704 138.4 492.504 139.4 491.038 140.2C486.638 142.733 481.838 144.867 476.638 146.6C471.571 148.2 464.704 149 456.038 149ZM422.638 87.6H481.638C481.238 80.6667 479.438 75.0667 476.238 70.8C473.171 66.5333 469.438 63.4 465.038 61.4C460.638 59.4 456.304 58.4 452.038 58.4C447.771 58.4 443.438 59.4 439.038 61.4C434.638 63.4 430.904 66.5333 427.838 70.8C424.771 75.0667 423.038 80.6667 422.638 87.6ZM532.719 148C530.185 148 528.052 147.133 526.319 145.4C524.585 143.667 523.719 141.533 523.719 139V9.2C523.719 6.53333 524.585 4.33332 526.319 2.59999C528.052 0.866661 530.185 -2.86102e-06 532.719 -2.86102e-06C535.385 -2.86102e-06 537.585 0.866661 539.319 2.59999C541.052 4.33332 541.919 6.53333 541.919 9.2V139C541.919 141.533 541.052 143.667 539.319 145.4C537.585 147.133 535.385 148 532.719 148ZM599.523 149C593.79 149 588.39 147.8 583.323 145.4C578.39 143 574.39 139.6 571.323 135.2C568.39 130.667 566.923 125.267 566.923 119C566.923 109.533 570.657 101.8 578.123 95.8C585.723 89.6667 597.323 86.6 612.923 86.6H637.123V85C637.123 76.0667 634.923 69.7333 630.523 66C626.123 62.1333 619.39 60.2 610.323 60.2C604.723 60.2 599.79 60.7333 595.523 61.8C591.39 62.7333 587.457 63.8 583.723 65C582.657 65.2667 581.79 65.4 581.123 65.4C579.123 65.4 577.39 64.6667 575.923 63.2C574.457 61.7333 573.723 59.9333 573.723 57.8C573.723 54.2 575.457 51.6667 578.923 50.2C583.59 48.2 588.723 46.5333 594.323 45.2C600.057 43.7333 606.457 43 613.523 43C623.257 43 631.19 44.9333 637.323 48.8C643.457 52.6667 647.99 57.6 650.923 63.6C653.857 69.6 655.323 75.8667 655.323 82.4V139C655.323 141.533 654.39 143.667 652.523 145.4C650.79 147.133 648.657 148 646.123 148C643.59 148 641.457 147.133 639.723 145.4C637.99 143.667 637.123 141.533 637.123 139V133.8C633.523 137.533 628.723 141 622.723 144.2C616.723 147.4 608.99 149 599.523 149ZM606.323 133C612.59 133 618.457 131.467 623.923 128.4C629.39 125.333 633.79 121.867 637.123 118V101.2H615.323C605.99 101.2 598.59 102.4 593.123 104.8C587.79 107.2 585.123 111.267 585.123 117C585.123 121.267 586.59 125 589.523 128.2C592.59 131.4 598.19 133 606.323 133ZM746.781 148C744.248 148 742.115 147.133 740.381 145.4C738.648 143.667 737.781 141.533 737.781 139V53.2C737.781 50.6667 738.648 48.5333 740.381 46.8C742.115 44.9333 744.248 44 746.781 44C749.315 44 751.448 44.9333 753.181 46.8C755.048 48.5333 755.981 50.6667 755.981 53.2V61.8C759.581 57 763.981 52.6667 769.181 48.8C774.381 44.9333 780.448 43 787.381 43H788.381C790.915 43 792.981 43.8667 794.581 45.6C796.315 47.3333 797.181 49.4667 797.181 52C797.181 54.5333 796.315 56.6 794.581 58.2C792.848 59.8 790.648 60.6 787.981 60.6H786.981C780.448 60.6 774.515 62.2667 769.181 65.6C763.848 68.8 759.448 73 755.981 78.2V139C755.981 141.533 755.048 143.667 753.181 145.4C751.448 147.133 749.315 148 746.781 148ZM856.414 149C846.147 149 837.147 146.8 829.414 142.4C821.681 137.867 815.681 131.667 811.414 123.8C807.281 115.8 805.214 106.533 805.214 96C805.214 85.4667 807.281 76.2667 811.414 68.4C815.681 60.4 821.681 54.2 829.414 49.8C837.147 45.2667 846.147 43 856.414 43C866.681 43 875.614 45.2667 883.214 49.8C890.947 54.2 896.947 60.4 901.214 68.4C905.481 76.2667 907.614 85.4667 907.614 96C907.614 106.533 905.481 115.8 901.214 123.8C896.947 131.667 890.947 137.867 883.214 142.4C875.614 146.8 866.681 149 856.414 149ZM856.414 132.4C861.481 132.4 866.547 131.2 871.614 128.8C876.681 126.4 880.881 122.533 884.214 117.2C887.681 111.733 889.414 104.6 889.414 95.8C889.414 87 887.681 79.9333 884.214 74.6C880.881 69.2667 876.681 65.4667 871.614 63.2C866.547 60.8 861.481 59.6 856.414 59.6C851.347 59.6 846.214 60.8 841.014 63.2C835.947 65.4667 831.747 69.2667 828.414 74.6C825.081 79.9333 823.414 87 823.414 95.8C823.414 104.6 825.081 111.733 828.414 117.2C831.747 122.533 835.947 126.4 841.014 128.8C846.214 131.2 851.347 132.4 856.414 132.4ZM967.894 149C960.294 149 953.827 147.267 948.494 143.8C943.16 140.2 939.094 135.4 936.294 129.4C933.494 123.4 932.094 116.867 932.094 109.8V53C932.094 50.4667 932.96 48.3333 934.694 46.6C936.56 44.8667 938.76 44 941.294 44C943.827 44 945.96 44.8667 947.694 46.6C949.427 48.3333 950.294 50.4667 950.294 53V107.8C950.294 115.4 952.027 121.4 955.494 125.8C958.96 130.067 964.56 132.2 972.294 132.2C979.494 132.2 985.76 130.267 991.094 126.4C996.427 122.4 1001.09 117.933 1005.09 113V53C1005.09 50.4667 1005.96 48.3333 1007.69 46.6C1009.56 44.8667 1011.76 44 1014.29 44C1016.83 44 1018.96 44.8667 1020.69 46.6C1022.43 48.3333 1023.29 50.4667 1023.29 53V138.8C1023.29 141.333 1022.43 143.533 1020.69 145.4C1018.96 147.133 1016.83 148 1014.29 148C1011.76 148 1009.56 147.133 1007.69 145.4C1005.96 143.533 1005.09 141.333 1005.09 138.8V130.6C1000.96 135.133 995.96 139.333 990.094 143.2C984.227 147.067 976.827 149 967.894 149ZM1063.97 148C1061.44 148 1059.3 147.133 1057.57 145.4C1055.84 143.667 1054.97 141.533 1054.97 139V53.2C1054.97 50.5333 1055.84 48.3333 1057.57 46.6C1059.3 44.8667 1061.44 44 1063.97 44C1066.5 44 1068.64 44.8667 1070.37 46.6C1072.24 48.3333 1073.17 50.5333 1073.17 53.2V61.4C1077.44 56.7333 1082.44 52.5333 1088.17 48.8C1094.04 44.9333 1101.44 43 1110.37 43C1117.97 43 1124.44 44.8 1129.77 48.4C1135.1 51.8667 1139.17 56.6 1141.97 62.6C1144.77 68.4667 1146.17 75 1146.17 82.2V139C1146.17 141.533 1145.24 143.667 1143.37 145.4C1141.64 147.133 1139.5 148 1136.97 148C1134.44 148 1132.3 147.133 1130.57 145.4C1128.84 143.667 1127.97 141.533 1127.97 139V84.2C1127.97 76.6 1126.24 70.6667 1122.77 66.4C1119.44 62 1113.84 59.8 1105.97 59.8C1098.77 59.8 1092.5 61.7333 1087.17 65.6C1081.84 69.4667 1077.17 73.9333 1073.17 79V139C1073.17 141.533 1072.24 143.667 1070.37 145.4C1068.64 147.133 1066.5 148 1063.97 148ZM1219.04 149C1211.04 149 1203.31 146.933 1195.84 142.8C1188.51 138.667 1182.44 132.667 1177.64 124.8C1172.98 116.933 1170.64 107.333 1170.64 96C1170.64 84.6667 1172.98 75.0667 1177.64 67.2C1182.44 59.3333 1188.51 53.3333 1195.84 49.2C1203.31 45.0667 1211.04 43 1219.04 43C1226.11 43 1232.44 44.3333 1238.04 47C1243.64 49.6667 1248.71 53.4 1253.24 58.2V9.2C1253.24 6.53333 1254.11 4.33332 1255.84 2.59999C1257.71 0.866661 1259.91 -2.86102e-06 1262.44 -2.86102e-06C1264.98 -2.86102e-06 1267.11 0.866661 1268.84 2.59999C1270.58 4.33332 1271.44 6.53333 1271.44 9.2V139C1271.44 141.533 1270.58 143.667 1268.84 145.4C1267.11 147.133 1264.98 148 1262.44 148C1259.91 148 1257.71 147.133 1255.84 145.4C1254.11 143.667 1253.24 141.533 1253.24 139V133.8C1248.71 138.6 1243.64 142.333 1238.04 145C1232.44 147.667 1226.11 149 1219.04 149ZM1221.64 132C1228.18 132 1234.11 130.6 1239.44 127.8C1244.78 124.867 1249.38 121.267 1253.24 117V75C1249.38 70.7333 1244.78 67.2 1239.44 64.4C1234.11 61.4667 1228.18 60 1221.64 60C1212.18 60 1204.31 63.0667 1198.04 69.2C1191.91 75.2 1188.84 84.1333 1188.84 96C1188.84 107.733 1191.91 116.667 1198.04 122.8C1204.31 128.933 1212.18 132 1221.64 132ZM28.6 373C26.0667 373 23.9333 372.133 22.2 370.4C20.4667 368.667 19.6 366.533 19.6 364V285.6H7.80001C5.66668 285.6 3.80001 284.867 2.20001 283.4C0.733346 281.8 1.24574e-05 279.933 1.24574e-05 277.8C1.24574e-05 275.533 0.733346 273.667 2.20001 272.2C3.80001 270.733 5.66668 270 7.80001 270H19.6V258.4C19.6 250 21.0667 243.267 24 238.2C27.0667 233.133 30.9333 229.533 35.6 227.4C40.2667 225.133 44.9333 224 49.6 224C52.9334 224 56.0667 224.4 59 225.2C61.9333 225.867 64.6 226.8 67 228C68.2 228.533 69.2667 229.467 70.2 230.8C71.1333 232 71.6 233.4 71.6 235C71.6 236.867 70.8667 238.6 69.4 240.2C68.0667 241.8 66.3333 242.6 64.2 242.6C62.6 242.6 61 242.4 59.4 242C57.8 241.6 56.0667 241.4 54.2 241.4C49.2667 241.4 45.2667 242.6 42.2 245C39.2667 247.267 37.8 251.933 37.8 259V270H62.8C65.0667 270 66.9334 270.733 68.4 272.2C69.8667 273.667 70.6 275.533 70.6 277.8C70.6 279.933 69.8667 281.8 68.4 283.4C66.9334 284.867 65.0667 285.6 62.8 285.6H37.8V364C37.8 366.533 36.9333 368.667 35.2 370.4C33.4667 372.133 31.2667 373 28.6 373ZM127.508 374C117.241 374 108.241 371.8 100.508 367.4C92.7745 362.867 86.7745 356.667 82.5078 348.8C78.3745 340.8 76.3078 331.533 76.3078 321C76.3078 310.467 78.3745 301.267 82.5078 293.4C86.7745 285.4 92.7745 279.2 100.508 274.8C108.241 270.267 117.241 268 127.508 268C137.774 268 146.708 270.267 154.308 274.8C162.041 279.2 168.041 285.4 172.308 293.4C176.574 301.267 178.708 310.467 178.708 321C178.708 331.533 176.574 340.8 172.308 348.8C168.041 356.667 162.041 362.867 154.308 367.4C146.708 371.8 137.774 374 127.508 374ZM127.508 357.4C132.574 357.4 137.641 356.2 142.708 353.8C147.774 351.4 151.974 347.533 155.308 342.2C158.774 336.733 160.508 329.6 160.508 320.8C160.508 312 158.774 304.933 155.308 299.6C151.974 294.267 147.774 290.467 142.708 288.2C137.641 285.8 132.574 284.6 127.508 284.6C122.441 284.6 117.308 285.8 112.108 288.2C107.041 290.467 102.841 294.267 99.5078 299.6C96.1745 304.933 94.5078 312 94.5078 320.8C94.5078 329.6 96.1745 336.733 99.5078 342.2C102.841 347.533 107.041 351.4 112.108 353.8C117.308 356.2 122.441 357.4 127.508 357.4ZM213.188 373C210.654 373 208.521 372.133 206.788 370.4C205.054 368.667 204.188 366.533 204.188 364V278.2C204.188 275.533 205.054 273.333 206.788 271.6C208.521 269.867 210.654 269 213.188 269C215.721 269 217.854 269.867 219.588 271.6C221.454 273.333 222.388 275.533 222.388 278.2V286.4C226.654 281.733 231.654 277.533 237.388 273.8C243.254 269.933 250.654 268 259.588 268C267.188 268 273.654 269.8 278.988 273.4C284.321 276.867 288.388 281.6 291.188 287.6C293.988 293.467 295.388 300 295.388 307.2V364C295.388 366.533 294.454 368.667 292.588 370.4C290.854 372.133 288.721 373 286.188 373C283.654 373 281.521 372.133 279.788 370.4C278.054 368.667 277.188 366.533 277.188 364V309.2C277.188 301.6 275.454 295.667 271.988 291.4C268.654 287 263.054 284.8 255.188 284.8C247.988 284.8 241.721 286.733 236.388 290.6C231.054 294.467 226.388 298.933 222.388 304V364C222.388 366.533 221.454 368.667 219.588 370.4C217.854 372.133 215.721 373 213.188 373ZM358.919 374C356.519 374 353.652 373.733 350.319 373.2C347.119 372.8 343.919 371.8 340.719 370.2C337.652 368.467 335.052 365.8 332.919 362.2C330.785 358.6 329.719 353.733 329.719 347.6V285.6H315.519C312.985 285.6 311.719 284.333 311.719 281.8C311.719 280.467 312.319 279.333 313.519 278.4L340.719 251.8C340.985 251.533 341.385 251.2 341.919 250.8C342.585 250.267 343.319 250 344.119 250C345.185 250 346.052 250.4 346.719 251.2C347.519 252 347.919 252.933 347.919 254V270H370.519C372.785 270 374.652 270.733 376.119 272.2C377.585 273.667 378.319 275.533 378.319 277.8C378.319 279.933 377.585 281.8 376.119 283.4C374.652 284.867 372.785 285.6 370.519 285.6H347.919V346C347.919 349.867 348.652 352.667 350.119 354.4C351.585 356.133 353.319 357.2 355.319 357.6C357.452 357.867 359.319 358 360.919 358C364.119 358 366.452 357.733 367.919 357.2C369.519 356.533 371.185 356.2 372.919 356.2C374.785 356.2 376.452 356.867 377.919 358.2C379.385 359.533 380.119 361.267 380.119 363.4C380.119 366.467 378.585 368.8 375.519 370.4C373.119 371.467 370.519 372.333 367.719 373C365.052 373.667 362.119 374 358.919 374ZM478.039 374C472.306 374 466.906 372.8 461.839 370.4C456.906 368 452.906 364.6 449.839 360.2C446.906 355.667 445.439 350.267 445.439 344C445.439 334.533 449.172 326.8 456.639 320.8C464.239 314.667 475.839 311.6 491.439 311.6H515.639V310C515.639 301.067 513.439 294.733 509.039 291C504.639 287.133 497.906 285.2 488.839 285.2C483.239 285.2 478.306 285.733 474.039 286.8C469.906 287.733 465.972 288.8 462.239 290C461.172 290.267 460.306 290.4 459.639 290.4C457.639 290.4 455.906 289.667 454.439 288.2C452.972 286.733 452.239 284.933 452.239 282.8C452.239 279.2 453.972 276.667 457.439 275.2C462.106 273.2 467.239 271.533 472.839 270.2C478.572 268.733 484.972 268 492.039 268C501.772 268 509.706 269.933 515.839 273.8C521.972 277.667 526.506 282.6 529.439 288.6C532.372 294.6 533.839 300.867 533.839 307.4V364C533.839 366.533 532.906 368.667 531.039 370.4C529.306 372.133 527.172 373 524.639 373C522.106 373 519.972 372.133 518.239 370.4C516.506 368.667 515.639 366.533 515.639 364V358.8C512.039 362.533 507.239 366 501.239 369.2C495.239 372.4 487.506 374 478.039 374ZM484.839 358C491.106 358 496.972 356.467 502.439 353.4C507.906 350.333 512.306 346.867 515.639 343V326.2H493.839C484.506 326.2 477.106 327.4 471.639 329.8C466.306 332.2 463.639 336.267 463.639 342C463.639 346.267 465.106 350 468.039 353.2C471.106 356.4 476.706 358 484.839 358ZM573.344 373C570.81 373 568.677 372.133 566.944 370.4C565.21 368.667 564.344 366.533 564.344 364V234.2C564.344 231.533 565.21 229.333 566.944 227.6C568.677 225.867 570.81 225 573.344 225C576.01 225 578.21 225.867 579.944 227.6C581.677 229.333 582.544 231.533 582.544 234.2V364C582.544 366.533 581.677 368.667 579.944 370.4C578.21 372.133 576.01 373 573.344 373ZM623.148 373C620.615 373 618.482 372.133 616.748 370.4C615.015 368.667 614.148 366.533 614.148 364V234.2C614.148 231.533 615.015 229.333 616.748 227.6C618.482 225.867 620.615 225 623.148 225C625.815 225 628.015 225.867 629.748 227.6C631.482 229.333 632.348 231.533 632.348 234.2V364C632.348 366.533 631.482 368.667 629.748 370.4C628.015 372.133 625.815 373 623.148 373ZM724.906 373C722.373 373 720.24 372.133 718.506 370.4C716.773 368.667 715.906 366.533 715.906 364V234.2C715.906 231.533 716.773 229.333 718.506 227.6C720.24 225.867 722.373 225 724.906 225C727.573 225 729.773 225.867 731.506 227.6C733.24 229.333 734.106 231.533 734.106 234.2V364C734.106 366.533 733.24 368.667 731.506 370.4C729.773 372.133 727.573 373 724.906 373ZM810.711 374C800.444 374 791.444 371.8 783.711 367.4C775.978 362.867 769.978 356.667 765.711 348.8C761.578 340.8 759.511 331.533 759.511 321C759.511 310.467 761.578 301.267 765.711 293.4C769.978 285.4 775.978 279.2 783.711 274.8C791.444 270.267 800.444 268 810.711 268C820.978 268 829.911 270.267 837.511 274.8C845.244 279.2 851.244 285.4 855.511 293.4C859.778 301.267 861.911 310.467 861.911 321C861.911 331.533 859.778 340.8 855.511 348.8C851.244 356.667 845.244 362.867 837.511 367.4C829.911 371.8 820.978 374 810.711 374ZM810.711 357.4C815.778 357.4 820.844 356.2 825.911 353.8C830.978 351.4 835.178 347.533 838.511 342.2C841.978 336.733 843.711 329.6 843.711 320.8C843.711 312 841.978 304.933 838.511 299.6C835.178 294.267 830.978 290.467 825.911 288.2C820.844 285.8 815.778 284.6 810.711 284.6C805.644 284.6 800.511 285.8 795.311 288.2C790.244 290.467 786.044 294.267 782.711 299.6C779.378 304.933 777.711 312 777.711 320.8C777.711 329.6 779.378 336.733 782.711 342.2C786.044 347.533 790.244 351.4 795.311 353.8C800.511 356.2 805.644 357.4 810.711 357.4ZM916.423 373C913.757 373 911.357 372.2 909.223 370.6C907.09 368.867 905.623 366.867 904.823 364.6L876.423 281.4C876.023 280.2 875.823 279.067 875.823 278C875.823 275.467 876.69 273.333 878.423 271.6C880.157 269.867 882.29 269 884.823 269C886.69 269 888.357 269.467 889.823 270.4C891.423 271.333 892.49 272.667 893.023 274.4L916.423 351.4L939.623 276.2C940.29 274.067 941.49 272.333 943.223 271C945.09 269.667 947.157 269 949.423 269C951.69 269 953.757 269.667 955.623 271C957.49 272.333 958.69 274.067 959.223 276.2L982.423 351.4L1005.82 274.4C1006.36 272.667 1007.42 271.333 1009.02 270.4C1010.62 269.467 1012.29 269 1014.02 269C1016.56 269 1018.69 269.867 1020.42 271.6C1022.16 273.333 1023.02 275.467 1023.02 278C1023.02 279.067 1022.82 280.2 1022.42 281.4L994.023 364.6C993.223 366.867 991.757 368.867 989.623 370.6C987.49 372.2 985.09 373 982.423 373C979.757 373 977.357 372.2 975.223 370.6C973.09 368.867 971.557 366.8 970.623 364.4L949.423 298.2L928.223 364.4C927.29 366.8 925.757 368.867 923.623 370.6C921.49 372.2 919.09 373 916.423 373ZM1088.65 374C1072.39 374 1059.65 369.4 1050.45 360.2C1041.39 350.867 1036.85 337.8 1036.85 321C1036.85 311.933 1038.52 303.4 1041.85 295.4C1045.19 287.267 1050.39 280.667 1057.45 275.6C1064.52 270.533 1073.59 268 1084.65 268C1094.92 268 1103.59 270.4 1110.65 275.2C1117.72 279.867 1123.05 286 1126.65 293.6C1130.39 301.2 1132.25 309.467 1132.25 318.4C1132.25 320.933 1131.39 323.067 1129.65 324.8C1128.05 326.533 1125.85 327.4 1123.05 327.4H1055.25C1056.32 336.333 1059.72 343.533 1065.45 349C1071.19 354.333 1079.45 357 1090.25 357C1096.25 357 1101.32 356.467 1105.45 355.4C1109.59 354.2 1113.52 352.667 1117.25 350.8C1118.32 350.267 1119.52 350 1120.85 350C1122.99 350 1124.85 350.733 1126.45 352.2C1128.05 353.667 1128.85 355.533 1128.85 357.8C1128.85 359.4 1128.32 360.867 1127.25 362.2C1126.32 363.4 1125.12 364.4 1123.65 365.2C1119.25 367.733 1114.45 369.867 1109.25 371.6C1104.19 373.2 1097.32 374 1088.65 374ZM1055.25 312.6H1114.25C1113.85 305.667 1112.05 300.067 1108.85 295.8C1105.79 291.533 1102.05 288.4 1097.65 286.4C1093.25 284.4 1088.92 283.4 1084.65 283.4C1080.39 283.4 1076.05 284.4 1071.65 286.4C1067.25 288.4 1063.52 291.533 1060.45 295.8C1057.39 300.067 1055.65 305.667 1055.25 312.6ZM1165.34 373C1162.8 373 1160.67 372.133 1158.94 370.4C1157.2 368.667 1156.34 366.533 1156.34 364V278.2C1156.34 275.667 1157.2 273.533 1158.94 271.8C1160.67 269.933 1162.8 269 1165.34 269C1167.87 269 1170 269.933 1171.74 271.8C1173.6 273.533 1174.54 275.667 1174.54 278.2V286.8C1178.14 282 1182.54 277.667 1187.74 273.8C1192.94 269.933 1199 268 1205.94 268H1206.94C1209.47 268 1211.54 268.867 1213.14 270.6C1214.87 272.333 1215.74 274.467 1215.74 277C1215.74 279.533 1214.87 281.6 1213.14 283.2C1211.4 284.8 1209.2 285.6 1206.54 285.6H1205.54C1199 285.6 1193.07 287.267 1187.74 290.6C1182.4 293.8 1178 298 1174.54 303.2V364C1174.54 366.533 1173.6 368.667 1171.74 370.4C1170 372.133 1167.87 373 1165.34 373ZM59.2 599C49.7333 599 40.9333 596.933 32.8 592.8C24.6667 588.533 18.1333 582.467 13.2 574.6C8.26668 566.6 5.80001 557.067 5.80001 546C5.80001 534.8 8.26668 525.267 13.2 517.4C18.1333 509.533 24.6667 503.533 32.8 499.4C40.9333 495.133 49.7333 493 59.2 493C67.0667 493 73.6 494.067 78.8 496.2C84.1333 498.2 88.4667 500.333 91.8 502.6C94.4667 504.333 95.8 506.667 95.8 509.6C95.8 511.467 95.0667 513.267 93.6 515C92.1333 516.733 90.3333 517.6 88.2 517.6C86.7334 517.6 85.2667 517.2 83.8 516.4C80.3334 514.533 76.9334 513 73.6 511.8C70.2667 510.6 66 510 60.8 510C49.2 510 40.1333 513.333 33.6 520C27.2 526.667 24 535.333 24 546C24 556.667 27.2 565.333 33.6 572C40.1333 578.667 49.2 582 60.8 582C66 582 70.2667 581.4 73.6 580.2C76.9334 578.867 80.3334 577.333 83.8 575.6C85.2667 574.8 86.7334 574.4 88.2 574.4C90.3333 574.4 92.1333 575.267 93.6 577C95.0667 578.733 95.8 580.533 95.8 582.4C95.8 585.333 94.4667 587.667 91.8 589.4C88.4667 591.533 84.1333 593.667 78.8 595.8C73.6 597.933 67.0667 599 59.2 599ZM144.641 599C138.907 599 133.507 597.8 128.441 595.4C123.507 593 119.507 589.6 116.441 585.2C113.507 580.667 112.041 575.267 112.041 569C112.041 559.533 115.774 551.8 123.241 545.8C130.841 539.667 142.441 536.6 158.041 536.6H182.241V535C182.241 526.067 180.041 519.733 175.641 516C171.241 512.133 164.507 510.2 155.441 510.2C149.841 510.2 144.907 510.733 140.641 511.8C136.507 512.733 132.574 513.8 128.841 515C127.774 515.267 126.907 515.4 126.241 515.4C124.241 515.4 122.507 514.667 121.041 513.2C119.574 511.733 118.841 509.933 118.841 507.8C118.841 504.2 120.574 501.667 124.041 500.2C128.707 498.2 133.841 496.533 139.441 495.2C145.174 493.733 151.574 493 158.641 493C168.374 493 176.307 494.933 182.441 498.8C188.574 502.667 193.107 507.6 196.041 513.6C198.974 519.6 200.441 525.867 200.441 532.4V589C200.441 591.533 199.507 593.667 197.641 595.4C195.907 597.133 193.774 598 191.241 598C188.707 598 186.574 597.133 184.841 595.4C183.107 593.667 182.241 591.533 182.241 589V583.8C178.641 587.533 173.841 591 167.841 594.2C161.841 597.4 154.107 599 144.641 599ZM151.441 583C157.707 583 163.574 581.467 169.041 578.4C174.507 575.333 178.907 571.867 182.241 568V551.2H160.441C151.107 551.2 143.707 552.4 138.241 554.8C132.907 557.2 130.241 561.267 130.241 567C130.241 571.267 131.707 575 134.641 578.2C137.707 581.4 143.307 583 151.441 583ZM263.945 599C256.612 599 249.945 598.2 243.945 596.6C238.079 595 232.612 592.8 227.545 590C225.279 588.4 224.145 586.2 224.145 583.4C224.145 581.4 224.879 579.6 226.345 578C227.812 576.267 229.679 575.4 231.945 575.4C233.145 575.4 234.345 575.667 235.545 576.2C239.145 577.8 243.079 579.2 247.345 580.4C251.745 581.6 256.879 582.2 262.745 582.2C270.479 582.2 276.079 581 279.545 578.6C283.145 576.067 284.945 572.533 284.945 568C284.945 565.067 283.479 562.8 280.545 561.2C277.745 559.6 274.012 558.267 269.345 557.2C264.812 556 260.012 554.8 254.945 553.6C249.879 552.267 245.012 550.533 240.345 548.4C235.812 546.133 232.079 543.133 229.145 539.4C226.345 535.533 224.945 530.6 224.945 524.6C224.945 515.533 228.212 508 234.745 502C241.279 496 251.012 493 263.945 493C269.412 493 274.545 493.467 279.345 494.4C284.279 495.333 288.812 496.533 292.945 498C294.812 498.533 296.212 499.6 297.145 501.2C298.212 502.667 298.745 504.133 298.745 505.6C298.745 507.733 297.945 509.6 296.345 511.2C294.879 512.8 293.012 513.6 290.745 513.6C290.212 513.6 289.745 513.6 289.345 513.6C288.945 513.467 288.545 513.333 288.145 513.2C284.945 512.133 281.412 511.267 277.545 510.6C273.812 509.933 269.745 509.6 265.345 509.6C258.012 509.6 252.345 510.933 248.345 513.6C244.345 516.267 242.345 519.6 242.345 523.6C242.345 527.067 243.745 529.733 246.545 531.6C249.479 533.467 253.212 535 257.745 536.2C262.412 537.267 267.279 538.4 272.345 539.6C277.545 540.8 282.412 542.533 286.945 544.8C291.612 546.933 295.345 549.933 298.145 553.8C301.079 557.667 302.545 562.867 302.545 569.4C302.545 577.533 299.279 584.533 292.745 590.4C286.345 596.133 276.745 599 263.945 599ZM372.639 599C356.372 599 343.639 594.4 334.439 585.2C325.372 575.867 320.839 562.8 320.839 546C320.839 536.933 322.506 528.4 325.839 520.4C329.172 512.267 334.372 505.667 341.439 500.6C348.506 495.533 357.572 493 368.639 493C378.906 493 387.572 495.4 394.639 500.2C401.706 504.867 407.039 511 410.639 518.6C414.372 526.2 416.239 534.467 416.239 543.4C416.239 545.933 415.372 548.067 413.639 549.8C412.039 551.533 409.839 552.4 407.039 552.4H339.239C340.306 561.333 343.706 568.533 349.439 574C355.172 579.333 363.439 582 374.239 582C380.239 582 385.306 581.467 389.439 580.4C393.572 579.2 397.506 577.667 401.239 575.8C402.306 575.267 403.506 575 404.839 575C406.972 575 408.839 575.733 410.439 577.2C412.039 578.667 412.839 580.533 412.839 582.8C412.839 584.4 412.306 585.867 411.239 587.2C410.306 588.4 409.106 589.4 407.639 590.2C403.239 592.733 398.439 594.867 393.239 596.6C388.172 598.2 381.306 599 372.639 599ZM339.239 537.6H398.239C397.839 530.667 396.039 525.067 392.839 520.8C389.772 516.533 386.039 513.4 381.639 511.4C377.239 509.4 372.906 508.4 368.639 508.4C364.372 508.4 360.039 509.4 355.639 511.4C351.239 513.4 347.506 516.533 344.439 520.8C341.372 525.067 339.639 530.667 339.239 537.6Z" fill="black"/>
</svg>
